<svg width="22" height="22" viewBox="0 0 22 22" fill="none" xmlns="http://www.w3.org/2000/svg">
<g clip-path="url(#clip0_628_1690)">
<path d="M21.0837 2.74994C20.2058 3.36913 19.2339 3.84271 18.2053 4.15244C17.6533 3.51766 16.9195 3.06774 16.1034 2.86354C15.2873 2.65934 14.4282 2.7107 13.6422 3.01069C12.8563 3.31068 12.1814 3.84481 11.7089 4.54085C11.2364 5.23689 10.989 6.06125 11.0003 6.90244V7.81911C9.38941 7.86088 7.79316 7.5036 6.35375 6.7791C4.91434 6.0546 3.67645 4.98536 2.75033 3.66661C2.75033 3.66661 -0.916341 11.9166 7.33366 15.5833C5.44581 16.8647 3.19689 17.5073 0.916992 17.4166C9.16699 21.9999 19.2503 17.4166 19.2503 6.87494C19.2495 6.61961 19.2249 6.3649 19.177 6.11411C20.1125 5.19148 20.7727 4.02659 21.0837 2.74994V2.74994Z" stroke="#BA9872" stroke-width="2" stroke-linecap="round" stroke-linejoin="round"/>
</g>
<defs>
<clipPath id="clip0_628_1690">
<rect width="22" height="22" fill="white"/>
</clipPath>
</defs>
</svg>
