<svg width="66" height="66" viewBox="0 0 66 66" fill="none" xmlns="http://www.w3.org/2000/svg">
<g filter="url(#filter0_f_202_73)">
<circle cx="33" cy="33" r="29" fill="#BA9872"/>
<path d="M42.9924 32.6246C42.9924 30.891 41.5745 29.4731 39.8409 29.4731C38.1073 29.4731 36.6832 30.8848 36.6832 32.6246C36.6832 34.1849 37.8163 35.4789 39.3084 35.7266V39.0328C39.3084 41.6085 37.2157 43.7012 34.64 43.7012C32.0644 43.7012 29.9716 41.6085 29.9716 39.0328L29.9593 35.2436C31.179 35.0827 32.374 34.3644 33.4389 33.1447C33.5937 32.9652 33.6432 32.7361 33.6184 32.5132C35.0053 30.6743 35.866 28.1791 35.866 26.2536C35.866 23.2878 34.5348 22.9783 32.3368 22.4767L32.3306 22.4705C32.1944 22.1981 31.922 22 31.5938 22C31.1295 22 30.7518 22.3777 30.7518 22.8359C30.7518 23.3002 31.1295 23.6779 31.5938 23.6779C31.7796 23.6779 31.9529 23.6036 32.0891 23.4922L32.1077 23.4983C34.2438 23.9875 34.8196 24.1237 34.8196 26.2536C34.8196 27.9438 34.0209 30.2099 32.795 31.8445C32.5907 31.8569 32.3925 31.9436 32.2439 32.1107C31.6186 32.8351 30.6217 33.702 29.4392 33.702C28.2628 33.702 27.266 32.8475 26.6406 32.1231C26.492 31.956 26.2877 31.8693 26.0896 31.8569C24.8637 30.2161 24.0649 27.95 24.0649 26.2598C24.0649 24.1237 24.6346 23.9937 26.7768 23.5045L26.783 23.4983C26.9316 23.6098 27.0926 23.6841 27.2845 23.6841C27.7489 23.6841 28.1266 23.3064 28.1266 22.842C28.1266 22.3839 27.7489 22.0062 27.2845 22.0062C26.9502 22.0062 26.6778 22.2043 26.5353 22.4767C24.3374 22.9844 23 23.2878 23 26.2598C23 28.1853 23.8668 30.6929 25.2661 32.5317C25.2413 32.7546 25.2847 32.9837 25.4457 33.1633C26.5044 34.3768 27.6932 35.0889 28.9129 35.2498V39.039C28.9129 42.1967 31.4886 44.76 34.64 44.76C37.7977 44.76 40.3548 42.1905 40.3548 39.039V35.7328C41.847 35.4727 42.9924 34.1849 42.9924 32.6246ZM39.8347 34.7297C38.6769 34.7297 37.7296 33.7886 37.7296 32.6246C37.7296 31.4668 38.6769 30.5257 39.8347 30.5257C40.9925 30.5257 41.9336 31.4668 41.9336 32.6246C41.9336 33.7824 40.9925 34.7297 39.8347 34.7297Z" fill="white"/>
<path d="M39.8347 31.052C38.9679 31.052 38.2559 31.7578 38.2559 32.6247C38.2559 33.4977 38.9617 34.2035 39.8347 34.2035C40.7015 34.2035 41.4136 33.5038 41.4136 32.6247C41.4136 31.7516 40.7077 31.052 39.8347 31.052Z" fill="white"/>
</g>
<defs>
<filter id="filter0_f_202_73" x="0" y="0" width="66" height="66" filterUnits="userSpaceOnUse" color-interpolation-filters="sRGB">
<feFlood flood-opacity="0" result="BackgroundImageFix"/>
<feBlend mode="normal" in="SourceGraphic" in2="BackgroundImageFix" result="shape"/>
<feGaussianBlur stdDeviation="2" result="effect1_foregroundBlur_202_73"/>
</filter>
</defs>
</svg>
