<svg width="132" height="132" viewBox="0 0 132 132" fill="none" xmlns="http://www.w3.org/2000/svg">
<circle cx="66" cy="66" r="66" fill="#0C97CD"/>
<path d="M83.3938 66.3967H81.9369V64.9398C81.9369 64.1319 81.2878 63.4829 80.4799 63.4829C79.672 63.4829 79.023 64.1319 79.023 64.9398V66.3967H77.5662C76.7582 66.3967 76.1092 67.0457 76.1092 67.8537C76.1092 68.6616 76.7582 69.3106 77.5662 69.3106H79.023V70.7675C79.023 71.5754 79.672 72.2244 80.4799 72.2244C81.2878 72.2244 81.9369 71.5754 81.9369 70.7675V69.3106H83.3938C84.2017 69.3106 84.8507 68.6616 84.8507 67.8537C84.8507 67.059 84.1884 66.3967 83.3938 66.3967ZM87.6983 60.6618C87.738 60.2115 87.7645 59.7744 87.7645 59.3241C87.7645 52.0131 82.4931 46 75.2748 46C71.3809 46 68.0035 47.8543 65.5002 51.3508C65.0499 51.9866 64.6526 52.6223 64.3347 53.2183C64.0168 52.6223 63.6196 51.9866 63.1692 51.3508C60.666 47.8543 57.2886 46 53.3947 46C46.1631 46 40.9049 52.0131 40.9049 59.3241C40.9049 62.7545 42.1102 65.9597 44.6797 69.3238H42.3619C41.554 69.3238 40.9049 69.9728 40.9049 70.7807C40.9049 71.5887 41.554 72.2376 42.3619 72.2376H47.2094C49.951 75.1117 53.5139 78.105 57.527 81.4824C59.3945 83.0585 61.3149 84.6744 63.3679 86.4624C63.646 86.7008 63.9772 86.82 64.3215 86.82C64.6659 86.82 64.997 86.7008 65.2751 86.4624C67.3545 84.6611 69.3147 83.0188 71.2219 81.4427C73.01 79.946 74.7185 78.5289 76.2681 77.1779C77.5529 77.7607 78.9701 78.0785 80.4535 78.0785C86.0825 78.0785 90.6651 73.4959 90.6651 67.8669C90.6783 65.0458 89.5393 62.5028 87.6983 60.6618ZM43.832 59.3109C43.832 53.3773 47.9511 48.9006 53.4079 48.9006C56.3349 48.9006 58.7985 50.2648 60.7587 52.9667C62.3083 55.0991 62.9308 57.2977 62.944 57.3109C63.1162 57.9467 63.699 58.3705 64.348 58.3838C64.9969 58.3838 65.5797 57.9467 65.7519 57.3242C65.7519 57.2977 66.3877 55.1123 67.9373 52.9799C69.8842 50.278 72.361 48.9138 75.288 48.9138C80.5329 48.9138 84.5328 53.0462 84.8375 58.6354C83.513 58.0129 82.0428 57.6553 80.4799 57.6553C75.341 57.6553 71.0895 61.4697 70.3743 66.3967H65.0632C64.3877 66.3967 63.805 66.8471 63.646 67.4961L62.6791 71.39L58.4276 58.6486C58.229 58.0394 57.6329 57.6288 56.9839 57.6553C56.335 57.6818 55.7787 58.1321 55.6198 58.7546L52.9841 69.3106H48.4809C45.5273 66.0127 43.832 62.8869 43.832 59.3109ZM69.3677 79.1911C67.7519 80.542 66.083 81.9327 64.3347 83.4294C62.6261 81.9592 60.9971 80.5818 59.4077 79.2573C56.3482 76.6879 53.633 74.3965 51.355 72.2376H54.1231C54.7986 72.2376 55.3814 71.7873 55.5403 71.1383L57.2356 64.3306L61.4872 77.0719C61.6858 77.6679 62.2421 78.0653 62.8646 78.0653C62.8778 78.0653 62.9044 78.0653 62.9176 78.0653C63.5666 78.0388 64.1228 77.5885 64.2817 76.966L66.189 69.3238H70.3611C70.7187 71.7741 71.9372 73.9595 73.7252 75.5223C72.3742 76.6879 70.9041 77.9063 69.3677 79.1911ZM80.4668 75.1515C76.4536 75.1515 73.1822 71.88 73.1822 67.8669C73.1822 63.8538 76.4536 60.5823 80.4668 60.5823C84.4799 60.5823 87.7513 63.8538 87.7513 67.8669C87.7645 71.88 84.4931 75.1515 80.4668 75.1515Z" fill="white"/>
</svg>
