<svg width="76" height="76" viewBox="0 0 76 76" fill="none" xmlns="http://www.w3.org/2000/svg">
<g filter="url(#filter0_f_202_69)">
<circle cx="38" cy="38" r="36" fill="#6FD9D2"/>
<path d="M43.1595 23.0246C42.7317 22.9127 42.2965 23.1925 42.1914 23.6561C42.0863 24.1277 41.9362 24.5833 41.7486 25.0149H34.2589C34.0713 24.5833 33.9287 24.1277 33.8161 23.6561C33.7111 23.2005 33.2758 22.9127 32.848 23.0246C32.4203 23.1365 32.1501 23.6001 32.2551 24.0558C32.4277 24.8231 32.6979 25.5585 33.0357 26.2379C33.0432 26.2539 33.0506 26.2699 33.0581 26.2859C33.8161 27.7806 34.9419 29.0435 36.3302 29.9148C33.651 31.6014 32 34.6628 32 37.996C32 41.3212 33.651 44.3906 36.3302 46.0772C34.9419 46.9485 33.8086 48.2114 33.0581 49.7061C33.0506 49.7221 33.0432 49.7381 33.0357 49.7541C32.6904 50.4415 32.4277 51.1769 32.2551 51.9442C32.1501 52.3999 32.4128 52.8635 32.848 52.9754C33.2758 53.0873 33.7111 52.8075 33.8161 52.3439C33.9212 51.8723 34.0713 51.4167 34.2589 50.985H41.7486C41.9362 51.4167 42.0788 51.8723 42.1914 52.3439C42.2965 52.7995 42.7317 53.0873 43.1595 52.9754C43.3096 52.9354 43.4372 52.8555 43.5347 52.7516C43.7298 52.5437 43.8199 52.248 43.7448 51.9442C43.5722 51.1769 43.3021 50.4415 42.9643 49.7621C42.9568 49.7461 42.9494 49.7301 42.9419 49.7141C42.1839 48.2194 41.0581 46.9565 39.6698 46.0852C40.3152 45.6775 40.9006 45.1899 41.4184 44.6384C43.0469 42.9039 44 40.5299 44 38.004C44 34.6788 42.349 31.6094 39.6698 29.9228C40.3077 29.5231 40.8931 29.0355 41.4184 28.484C42.0188 27.8445 42.5291 27.1092 42.9419 26.3098C42.9569 26.2859 42.9644 26.2619 42.9794 26.2379C43.3171 25.5505 43.5872 24.8231 43.7598 24.0558C43.8574 23.6001 43.5948 23.1365 43.1595 23.0246ZM37.3733 31.2657L38.0113 30.898L38.6491 31.2657C39.4747 31.7453 40.1801 32.3767 40.758 33.1201H35.2645C35.8349 32.3767 36.5478 31.7453 37.3733 31.2657ZM42.349 37.1407H33.6585C33.7411 36.3334 33.9437 35.558 34.2589 34.8307H41.7486C42.0638 35.558 42.2664 36.3334 42.349 37.1407ZM41.7561 41.1693H34.2664C33.9587 40.4419 33.7561 39.6666 33.666 38.8593H42.3565C42.2664 39.6586 42.0638 40.4419 41.7561 41.1693ZM35.2645 49.2745C35.8424 48.5231 36.5553 47.8917 37.3733 47.42L38.0113 47.0524L38.6491 47.42C39.4672 47.8917 40.1801 48.5311 40.758 49.2745H35.2645ZM38.6416 44.7343L38.0038 45.102L37.3658 44.7343C36.5403 44.2547 35.8349 43.6233 35.257 42.8799H40.7505C40.1726 43.6233 39.4672 44.2547 38.6416 44.7343ZM38.6416 28.5799L38.0038 28.9476L37.3658 28.5799C36.5478 28.1083 35.8349 27.4689 35.257 26.7255H40.7429C40.1726 27.4689 39.4596 28.1083 38.6416 28.5799Z" fill="white"/>
</g>
<defs>
<filter id="filter0_f_202_69" x="0" y="0" width="76" height="76" filterUnits="userSpaceOnUse" color-interpolation-filters="sRGB">
<feFlood flood-opacity="0" result="BackgroundImageFix"/>
<feBlend mode="normal" in="SourceGraphic" in2="BackgroundImageFix" result="shape"/>
<feGaussianBlur stdDeviation="1" result="effect1_foregroundBlur_202_69"/>
</filter>
</defs>
</svg>
