<svg width="29" height="23" viewBox="0 0 29 23" fill="none" xmlns="http://www.w3.org/2000/svg">
<g clip-path="url(#clip0_1104_2461)">
<path d="M6.21937 9.89623L10.2292 7.33825C9.17026 6.09837 8.13544 4.88671 7.10051 3.67515C6.89571 3.43612 6.69281 3.19409 6.48345 2.95809C6.00543 2.41943 6.00506 1.86666 6.4884 1.34485C6.53116 1.29869 6.57963 1.25781 6.62593 1.21491C8.32997 -0.364736 7.94663 -0.175282 9.85725 0.499372C11.6034 1.11578 13.3236 1.8249 15.0002 2.60876C16.1011 3.12338 16.9797 3.24478 18.0456 2.43327C19.4738 1.33712 21.1562 0.613171 22.9391 0.327522C24.3947 0.0950465 25.8291 0.107631 27.2661 0.512072C29.2227 1.06244 29.1386 3.04363 28.2061 3.98272C27.6955 4.48211 27.136 4.92988 26.5359 5.31944C25.0306 6.32508 23.5104 7.31059 21.9678 8.25961C21.7436 8.38494 21.5496 8.55769 21.4002 8.76559C21.2508 8.97349 21.1493 9.21146 21.103 9.4626C20.3593 12.7459 19.5817 16.0224 18.8081 19.2991C18.718 19.643 18.6106 19.9818 18.4862 20.3149C18.3987 20.5745 18.2585 20.8135 18.0743 21.0172C17.89 21.2209 17.6656 21.385 17.4148 21.4994C16.5012 21.9338 15.5844 22.3623 14.6534 22.7573C13.6901 23.1664 13.1882 22.7974 13.2491 21.7593C13.4022 19.1478 13.5563 16.5364 13.7115 13.925C13.72 13.7806 13.7126 13.6357 13.7126 13.3912C13.4317 13.5504 13.203 13.6792 12.9752 13.8095C10.782 15.065 8.64099 16.4284 6.2563 17.3096C5.31134 17.6618 4.3273 17.9007 3.3251 18.0212C2.35019 18.1335 1.59467 17.6564 1.16984 16.7129C0.730733 15.7827 0.458165 14.7839 0.364327 13.7611C0.254185 12.3224 0.146201 10.8834 0.0604218 9.44311C0.011822 8.62881 0.378414 8.08952 1.14611 7.71654C2.90636 6.86111 2.70979 6.98489 3.89357 8.00812C4.5779 8.59937 5.28115 9.17012 5.97778 9.74767C6.05494 9.80237 6.13566 9.85201 6.21937 9.89623ZM14.6418 21.2108L14.8086 21.2863C15.228 21.0956 15.6334 20.86 16.0699 20.7243C16.8098 20.4947 17.0065 19.932 17.1754 19.273C18.0933 15.6908 19.0294 12.113 19.9836 8.53975C20.0865 8.14413 20.2688 7.77318 20.5198 7.44914C20.7707 7.12513 21.0851 6.85471 21.4441 6.65415C22.7647 5.87031 24.0338 4.99991 25.3104 4.14462C25.9219 3.73501 26.5189 3.29901 27.0885 2.83406C27.5693 2.4417 27.4958 2.14216 26.9133 1.94592C25.6487 1.52071 24.3501 1.45455 23.036 1.62161C21.3374 1.83735 19.8676 2.61882 18.4524 3.50645C14.5284 5.96798 10.6101 8.43849 6.69751 10.918C5.99959 11.359 5.89225 11.3672 5.27214 10.8047C4.49314 10.0981 3.73229 9.37191 2.9561 8.66228C2.75078 8.47446 2.55766 8.15695 2.21124 8.39684C1.85594 8.64304 1.27618 8.70165 1.33886 9.33229C1.53935 11.3486 1.65901 13.3772 1.97041 15.3766C2.21428 16.9423 2.73176 17.1549 4.274 16.6993C5.94643 16.2051 7.48056 15.4161 8.969 14.5347C10.5455 13.6012 12.104 12.638 13.6734 11.6926C14.3606 11.2786 14.8669 11.5097 14.9789 12.2869C15.0331 12.5963 15.0613 12.9096 15.0633 13.2236C15.0133 15.1699 14.9503 17.1158 14.8846 19.0616C14.8776 19.2682 14.8174 19.4729 14.7958 19.6798C14.7397 20.1898 14.6923 20.7006 14.6423 21.211L14.6418 21.2108ZM11.4933 6.54787L15.2505 4.17141C13.1816 3.02726 11.0254 2.04562 8.80177 1.23553C8.63908 1.17742 8.39874 1.14131 8.2688 1.21843C7.86541 1.4587 7.49808 1.75824 7.25088 1.9375L9.33863 4.20701C10.0301 4.95815 10.7214 5.70893 11.4933 6.54787Z" fill="#0C97CD"/>
</g>
<defs>
<clipPath id="clip0_1104_2461">
<rect width="29" height="23" fill="white"/>
</clipPath>
</defs>
</svg>
